<svg width="33" height="25" viewBox="0 0 33 25" fill="none" xmlns="http://www.w3.org/2000/svg">
<path d="M32.6544 2.04084C32.3043 1.86993 32.1542 2.19507 31.9486 2.36042C31.8791 2.416 31.8193 2.48547 31.761 2.548C31.2496 3.09684 30.6536 3.45394 29.8741 3.41086C28.7333 3.34834 27.7607 3.70682 26.9006 4.58081C26.7172 3.50257 26.1086 2.86063 25.1846 2.44795C24.6996 2.23258 24.2105 2.0186 23.8729 1.55174C23.6353 1.22104 23.5714 0.851441 23.4519 0.488786C23.3768 0.267859 23.3018 0.0441526 23.0489 0.00524717C22.7752 -0.0378267 22.6682 0.192827 22.5598 0.384575C22.1291 1.17241 21.9624 2.04084 21.9776 2.92038C22.0165 4.89483 22.8502 6.46911 24.5065 7.58903C24.6955 7.71825 24.7427 7.84748 24.6843 8.03506C24.5718 8.42133 24.437 8.7951 24.3175 9.17999C24.2425 9.42732 24.1299 9.4815 23.8673 9.37451C22.9743 8.99141 22.1634 8.43994 21.4788 7.75021C20.3005 6.61084 19.2362 5.35197 17.9079 4.36683C17.5952 4.13617 17.284 3.92219 16.9616 3.71794C15.6055 2.39793 17.1395 1.31553 17.4938 1.18908C17.8648 1.05569 17.623 0.594387 16.4239 0.599945C15.2248 0.605503 14.1271 1.00706 12.7293 1.54062C12.522 1.62142 12.3082 1.68418 12.0901 1.7282C10.7831 1.48362 9.4468 1.43678 8.12591 1.58925C5.53314 1.88105 3.46281 3.10657 1.93994 5.2019C0.112772 7.71686 -0.317967 10.5792 0.208647 13.5638C0.763049 16.7054 2.36512 19.3107 4.83006 21.3463C7.38253 23.4555 10.3255 24.4893 13.6811 24.292C15.718 24.1739 17.9884 23.9001 20.5479 21.7326C21.194 22.0521 21.8706 22.18 22.9961 22.2772C23.8618 22.3592 24.6955 22.2342 25.3402 22.1008C26.3517 21.8868 26.2809 20.9503 25.9154 20.7766C22.9531 19.3954 23.6019 19.9568 23.0114 19.5038C24.5176 17.7183 26.7866 15.8648 27.6745 9.86083C27.744 9.38424 27.6842 9.0855 27.6745 8.69784C27.669 8.46441 27.7218 8.37131 27.9913 8.34491C28.7356 8.26939 29.4576 8.04745 30.1158 7.69185C32.0361 6.64002 32.8086 4.91706 32.9921 2.84951C33.0198 2.5341 32.9865 2.20618 32.6544 2.04084ZM15.9237 20.6474C13.0516 18.3867 11.658 17.6433 11.0841 17.6767C10.5464 17.7058 10.6423 18.3228 10.7604 18.7243C10.884 19.1203 11.0452 19.3941 11.2717 19.7414C11.4287 19.9721 11.5357 20.3167 11.1161 20.5723C10.1907 21.1476 8.58305 20.3792 8.50662 20.3417C6.63499 19.2398 5.07044 17.7823 3.96719 15.7897C2.90424 13.8723 2.28592 11.8144 2.1831 9.61906C2.15531 9.08689 2.31232 8.89931 2.83893 8.80483C3.53252 8.6725 4.243 8.65373 4.94261 8.74925C7.87302 9.17999 10.3685 10.493 12.4597 12.5689C13.6547 13.7542 14.5578 15.1686 15.4888 16.5498C16.4767 18.0185 17.5424 19.4163 18.8986 20.5612C19.3751 20.9628 19.7586 21.2699 20.1227 21.495C19.0222 21.6172 17.1812 21.6436 15.9237 20.6474ZM17.2993 11.7825C17.2993 11.6703 17.3438 11.5627 17.4232 11.4833C17.5025 11.404 17.6101 11.3594 17.7224 11.3594C17.8346 11.3594 17.9422 11.404 18.0215 11.4833C18.1009 11.5627 18.1455 11.6703 18.1455 11.7825C18.1455 12.0187 17.9565 12.2049 17.7203 12.2049C17.6646 12.2055 17.6094 12.1949 17.5578 12.1737C17.5063 12.1526 17.4596 12.1213 17.4203 12.0818C17.3811 12.0423 17.3501 11.9954 17.3294 11.9437C17.3086 11.8921 17.2983 11.8382 17.2993 11.7825ZM21.5747 13.9793C21.301 14.0904 21.0272 14.1877 20.7632 14.2002C20.3681 14.2122 19.9807 14.0886 19.6655 13.85C19.2904 13.5346 19.0222 13.3582 18.9069 12.8051C18.8691 12.5362 18.8767 12.2629 18.9291 11.9965C19.0264 11.5463 18.918 11.2586 18.6026 10.996C18.3428 10.7807 18.0162 10.7237 17.655 10.7237C17.5312 10.7165 17.411 10.6793 17.3048 10.6153C17.1548 10.5389 17.0311 10.3513 17.1492 10.1207C17.1867 10.047 17.3701 9.86639 17.4132 9.83304C17.9023 9.55376 18.4664 9.64546 18.9889 9.85528C19.4738 10.0526 19.8378 10.4166 20.3645 10.9293C20.9036 11.5518 20.9994 11.7255 21.3065 12.1882C21.5483 12.555 21.7692 12.9302 21.9193 13.3582C22.011 13.6249 21.8915 13.8431 21.5747 13.9793Z" fill="#121423"/>
</svg>

