<?xml version="1.0" standalone="no"?>
<!DOCTYPE svg PUBLIC "-//W3C//DTD SVG 20010904//EN"
 "http://www.w3.org/TR/2001/REC-SVG-20010904/DTD/svg10.dtd">
<svg version="1.0" xmlns="http://www.w3.org/2000/svg"
 width="500.000000pt" height="500.000000pt" viewBox="0 0 500.000000 500.000000"
 preserveAspectRatio="xMidYMid meet">

<g transform="translate(0.000000,500.000000) scale(0.100000,-0.100000)" stroke="none">
<path d="M770 2845 l0 -1375 -345 0 -345 0 0 -345 0 -345 1035 0 1035 0 0 345
0 345 345 0 345 0 2 -342 3 -343 1038 -3 1037 -2 0 345 0 345 -345 0 -345 0 0
1375 0 1375 -345 0 -345 0 0 -345 0 -345 -350 0 -350 0 0 -345 0 -345 -342 2
-343 3 -3 343 -2 342 -345 0 -345 0 0 345 0 345 -345 0 -345 0 0 -1375z m1380
-1030 l0 -345 -345 0 -345 0 0 345 0 345 345 0 345 0 0 -345z m1388 -2 l2
-343 -350 0 -350 0 0 338 c0 186 3 342 7 345 4 4 160 6 347 5 l341 -3 3 -342z" fill="#56E8B4"/>
</g>
</svg>
