<svg width="38" height="38" viewBox="0 0 38 38" xmlns="http://www.w3.org/2000/svg">
<path opacity="0.989" d="M1.63257 26.7744C6.6541 28.0979 11.6763 29.4338 16.699 30.7822C16.77 31.7701 16.8257 32.7668 16.866 33.7705C16.8729 33.8594 16.8915 33.9463 16.9216 34.0303C20.0561 34.867 23.1858 35.7144 26.3103 36.5723C24.3667 37.3727 22.3503 37.8492 20.2615 38.001H17.8494C12.3361 37.5546 7.80235 35.2287 4.24878 31.0244C3.19897 29.7251 2.32692 28.3078 1.63257 26.7744ZM0.0739746 17.5898C6.05846 19.1973 12.0455 20.793 18.0349 22.377C17.761 23.4416 17.5136 24.5125 17.2927 25.5879C23.0112 27.1103 28.726 28.6441 34.4373 30.1895C33.6421 31.2818 32.7389 32.284 31.7283 33.1953C31.6439 33.2679 31.5509 33.3237 31.45 33.3623C21.2991 30.6561 11.1497 27.9471 1.00171 25.2354C0.466947 23.5883 0.13297 21.9051 -0.000244141 20.1875V17.8125C0.024369 17.7433 0.0492101 17.6688 0.0739746 17.5898ZM2.5603 9.42578C8.88688 11.1095 15.2079 12.8103 21.5232 14.5283C20.9342 15.4711 20.4023 16.4483 19.9275 17.46C25.873 19.0669 31.8229 20.6565 37.7771 22.2285C37.5819 23.5167 37.2416 24.7661 36.7566 25.9766C36.7235 25.9981 36.6863 26.0105 36.6453 26.0137L0.222412 16.2725C0.523139 13.8303 1.30242 11.5481 2.5603 9.42578ZM27.4421 7.23633C27.4886 7.24933 27.5012 7.27411 27.4792 7.31055C26.5441 8.13432 25.672 9.01883 24.863 9.96387C28.9759 11.088 33.0951 12.1951 37.2205 13.2852C37.5904 14.5412 37.8502 15.8154 37.9998 17.1074V17.5527C26.4337 14.4602 14.8679 11.3615 3.30249 8.25684C4.87602 5.97804 6.84278 4.12261 9.20288 2.69043C9.34878 2.61121 9.49724 2.54316 9.64819 2.48633C15.58 4.06669 21.5115 5.65007 27.4421 7.23633ZM20.2244 0C26.0223 0.489529 30.7044 3.01294 34.2703 7.57031C34.3162 7.62134 34.3224 7.67094 34.2888 7.71875L11.4294 1.57715C13.4666 0.676329 15.5944 0.150521 17.8123 0H20.2244Z" fill="#121423"/>
</svg>

