<svg width="36" height="36" viewBox="0 0 36 36" xmlns="http://www.w3.org/2000/svg">
<g clip-path="url(#clip0_232_855)">
<path d="M33.4227 14.7316C33.8252 13.5194 33.9644 12.2353 33.831 10.965C33.6976 9.69473 33.2947 8.46754 32.6491 7.36542C31.6921 5.69955 30.2307 4.38065 28.4758 3.59885C26.7208 2.81705 24.763 2.61276 22.8844 3.01541C21.8172 1.82826 20.4564 0.94282 18.9386 0.448031C17.4209 -0.0467575 15.7997 -0.133478 14.2378 0.196581C12.6759 0.52664 11.2284 1.26186 10.0406 2.32839C8.85282 3.39492 7.96657 4.75522 7.47087 6.27267C6.21937 6.5293 5.03706 7.0501 4.00295 7.80025C2.96885 8.55041 2.10677 9.51265 1.47432 10.6227C0.506873 12.2858 0.0933924 14.2134 0.293657 16.127C0.493922 18.0405 1.29755 19.8408 2.58837 21.2676C2.18437 22.4792 2.04376 23.7631 2.17595 25.0334C2.30813 26.3037 2.71007 27.5312 3.35487 28.6336C4.31313 30.3001 5.77575 31.6193 7.53194 32.4011C9.28812 33.1829 11.2472 33.3869 13.1268 32.9838C13.9747 33.9386 15.0165 34.7015 16.1827 35.2217C17.349 35.7418 18.6127 36.0071 19.8897 36C21.8151 36.0017 23.6913 35.3916 25.2475 34.2577C26.8036 33.1238 27.9592 31.5247 28.5474 29.6913C29.7987 29.4342 30.9809 28.9132 32.0149 28.1631C33.049 27.4129 33.9111 26.4509 34.5439 25.3411C35.4999 23.6805 35.9063 21.76 35.7049 19.8545C35.5035 17.9489 34.7047 16.1557 33.4227 14.7316ZM19.8897 33.6438C18.3128 33.6463 16.7853 33.0936 15.5751 32.0826L15.7879 31.962L22.9554 27.8247C23.1338 27.72 23.2819 27.5708 23.3851 27.3916C23.4884 27.2125 23.5433 27.0095 23.5444 26.8027V16.6974L26.5744 18.4503C26.5894 18.4579 26.6024 18.4689 26.6123 18.4824C26.6222 18.496 26.6287 18.5117 26.6314 18.5283V26.9022C26.6276 28.689 25.9161 30.4016 24.6526 31.6651C23.3891 32.9285 21.6765 33.64 19.8897 33.6438ZM5.39862 27.4557C4.60778 26.0901 4.32383 24.4894 4.59672 22.9351L4.80972 23.0629L11.9842 27.2002C12.1617 27.3044 12.3638 27.3593 12.5697 27.3593C12.7755 27.3593 12.9776 27.3044 13.1551 27.2002L21.9193 22.1475V25.6461C21.9185 25.6642 21.9136 25.6819 21.905 25.6979C21.8964 25.7139 21.8842 25.7277 21.8695 25.7383L14.6098 29.9253C13.0605 30.8178 11.2203 31.059 9.49334 30.596C7.76633 30.133 6.29365 29.0035 5.39862 27.4557ZM3.51102 11.8434C4.30735 10.469 5.56427 9.42076 7.05927 8.88417V17.4C7.05657 17.6057 7.10914 17.8084 7.21149 17.9869C7.31383 18.1654 7.4622 18.3131 7.64112 18.4147L16.3627 23.4462L13.3326 25.1989C13.3162 25.2076 13.2979 25.2122 13.2793 25.2122C13.2608 25.2122 13.2425 25.2076 13.2261 25.1989L5.98062 21.0192C4.43422 20.1228 3.30605 18.6501 2.84317 16.9237C2.3803 15.1972 2.62044 13.3577 3.51102 11.808V11.8434ZM28.4055 17.6271L19.6555 12.546L22.6786 10.8C22.695 10.7913 22.7133 10.7867 22.7319 10.7867C22.7504 10.7867 22.7687 10.7913 22.7851 10.8L30.0306 14.9869C31.1384 15.6261 32.0415 16.5673 32.6345 17.7006C33.2275 18.8338 33.4859 20.1124 33.3795 21.387C33.2731 22.6616 32.8063 23.8796 32.0336 24.8988C31.261 25.9181 30.2143 26.6965 29.0158 27.1432V18.6274C29.0095 18.422 28.95 18.2218 28.8429 18.0464C28.7359 17.871 28.5852 17.7266 28.4055 17.6271ZM31.4215 13.0924L31.2085 12.9646L24.0483 8.79192C23.8697 8.6871 23.6663 8.63184 23.4592 8.63184C23.2521 8.63184 23.0488 8.6871 22.8702 8.79192L14.1133 13.8445V10.3461C14.1115 10.3283 14.1144 10.3103 14.1219 10.2941C14.1294 10.2778 14.1412 10.2639 14.1559 10.2538L21.4014 6.07392C22.5118 5.43419 23.7815 5.12387 25.0619 5.17925C26.3422 5.23463 27.5803 5.65342 28.6314 6.38664C29.6825 7.11986 30.5031 8.13719 30.9972 9.31966C31.4913 10.5021 31.6386 11.8008 31.4217 13.0639L31.4215 13.0924ZM12.4596 19.2945L9.42957 17.5488C9.41441 17.5396 9.40145 17.5273 9.3916 17.5126C9.38175 17.4979 9.37525 17.4812 9.37257 17.4637V9.11127C9.37424 7.82993 9.74065 6.57554 10.429 5.49476C11.1173 4.41399 12.099 3.55149 13.2594 3.00812C14.4199 2.46475 15.711 2.26295 16.9819 2.42633C18.2528 2.58971 19.4509 3.11151 20.4361 3.93071L20.2231 4.05146L13.0558 8.18847C12.8774 8.29309 12.7293 8.44231 12.6261 8.62149C12.5228 8.80066 12.4679 9.00361 12.4668 9.21042L12.4596 19.2945ZM14.106 15.7464L18.009 13.4967L21.9193 15.7464V20.2455L18.0232 22.495L14.1132 20.2455L14.106 15.7464Z" fill="#56E8B4"/>
</g>
<defs>
<clipPath id="clip0_232_855">
<rect width="36" height="36" transform="translate(-0.000244141)"/>
</clipPath>
</defs>
</svg>
