<svg width="35" height="29" viewBox="0 0 35 29" fill="none" xmlns="http://www.w3.org/2000/svg">
<path d="M34.9412 0.0078125C34.9644 0.044498 34.9842 0.0832907 34.9998 0.124023C34.9787 0.168656 34.9518 0.210417 34.9197 0.248047C27.8843 9.32717 20.8375 18.3975 13.78 27.46C13.472 27.8576 13.1841 28.2696 12.9158 28.6953C8.62497 28.7123 4.33352 28.7142 0.0427246 28.7021C-0.0169148 28.6115 -0.0141016 28.5218 0.0505371 28.4336C1.48492 26.5143 2.94758 24.6156 4.43823 22.7383C6.27012 20.4608 8.09132 18.175 9.90112 15.8809C12.2288 12.8672 14.5383 9.83964 16.8308 6.7998C18.2353 4.96923 19.6402 3.13916 21.0447 1.30859C21.3172 0.962081 21.5933 0.617504 21.8728 0.276367C21.956 0.171421 22.0505 0.0797953 22.156 0.000976562C26.4177 -0.00144962 30.6795 0.000548281 34.9412 0.0078125ZM32.6609 24.4238C31.6083 25.8325 30.5527 27.2395 29.4939 28.6445C29.4397 28.6611 29.3858 28.68 29.3337 28.7021C25.1108 28.7145 20.8878 28.7104 16.6648 28.6885C16.5672 28.6234 16.5502 28.5381 16.614 28.4336C17.6459 27.0895 18.6798 25.7479 19.7156 24.4092C24.0331 24.4044 28.3483 24.4093 32.6609 24.4238ZM18.2332 0.0078125C18.2659 0.0540158 18.2948 0.102783 18.3201 0.15332C17.2701 1.51808 16.2145 2.87956 15.1531 4.23633C10.8236 4.24606 6.49422 4.24606 2.16479 4.23633C3.2683 2.83027 4.36258 1.41836 5.448 0.000976562C9.70967 -0.00144971 13.9715 0.000548377 18.2332 0.0078125Z" fill="#56E8B4"/>
</svg>
