<svg width="28" height="33" viewBox="0 0 28 33" fill="none" xmlns="http://www.w3.org/2000/svg">
<path d="M14.1895 10.9814C17.712 10.9439 20.4209 12.3941 22.3164 15.3311C22.8453 16.2263 23.2075 17.1866 23.4033 18.2119C23.4214 19.8247 23.4399 21.438 23.458 23.0508C23.6544 25.4717 24.3797 27.7183 25.6328 29.791C26.2564 30.7407 27.0266 31.5478 27.9434 32.2109C27.9887 32.2659 28.0073 32.3296 27.998 32.4014C26.2406 32.4522 24.4825 32.4605 22.7246 32.4277C18.6972 31.933 15.9607 29.7953 14.5156 26.0137C14.2842 25.3547 14.1478 24.6747 14.1074 23.9746C14.0712 19.6979 14.0712 15.4212 14.1074 11.1445C14.1353 11.0887 14.163 11.0343 14.1895 10.9814ZM0.163086 0C3.98576 0.057626 6.76821 1.77957 8.50879 5.16504C8.79142 5.83197 9.00901 6.52056 9.16113 7.23047C9.19767 12.1051 9.23354 16.9798 9.26953 21.8545C9.18818 24.3559 9.78624 26.6751 11.0635 28.8125C11.8339 29.9456 12.7581 30.9426 13.8359 31.8027C13.8622 31.8542 13.8713 31.9087 13.8633 31.9658C12.0687 32.0446 10.2747 32.0354 8.48145 31.9385C4.40552 31.4139 1.69579 29.2127 0.353516 25.334C0.195917 24.7817 0.0871995 24.2196 0.0273438 23.6484C-0.00891711 15.82 -0.00891706 7.99152 0.0273438 0.163086C0.0841046 0.115668 0.129281 0.0612027 0.163086 0Z" fill="#57E8B4"/>
</svg>
