<svg width="200" height="200" viewBox="0 0 200 200" fill="none" xmlns="http://www.w3.org/2000/svg">
<path fill-rule="evenodd" clip-rule="evenodd" d="M90.3463 0.0231124C93.5608 -0.0385607 96.7731 0.0231865 99.9828 0.208428C102.262 0.390593 104.177 1.31717 105.728 2.98816C109.232 9.44126 112.876 15.8038 116.661 22.0757C134.081 22.1992 151.501 22.3228 168.92 22.4463C170.319 22.9808 171.369 23.9074 172.071 25.226C176.889 33.874 181.707 42.5223 186.525 51.1702C186.799 52.5642 186.675 53.9233 186.155 55.2472C182.108 61.9812 178.154 68.7763 174.294 75.6319C174.047 76.3732 174.047 77.1144 174.294 77.8557C182.913 92.7443 191.437 107.693 199.868 122.702C200.128 123.973 200.004 125.208 199.497 126.408C195.514 133.757 191.437 141.046 187.266 148.276C186.308 150.347 184.764 151.767 182.634 152.538C174.727 152.661 166.82 152.785 158.913 152.909C150.235 168.042 141.463 183.114 132.598 198.126C131.592 198.833 130.48 199.327 129.263 199.608C118.606 199.972 107.981 199.849 97.3883 199.237C96.8324 198.682 96.2765 198.126 95.7205 197.57C91.6754 190.343 87.5366 183.178 83.3044 176.073C65.2465 175.883 47.2093 175.574 29.1922 175.146C24.2655 166.961 19.3855 158.746 14.5522 150.499C13.7108 148.858 13.4637 147.128 13.811 145.311C17.5173 138.886 21.2236 132.462 24.9299 126.038C25.4123 125.347 25.5358 124.605 25.3005 123.814C16.7393 109.2 8.3383 94.4985 0.0976093 79.7089C-0.229288 77.3094 0.264912 75.0856 1.58013 73.0375C6.19639 64.854 10.9528 56.762 15.8494 48.7611C16.4672 48.3905 17.0849 48.0199 17.7026 47.6492C26.4743 47.5258 35.2457 47.402 44.0174 47.2786C52.6505 32.4219 61.237 17.5349 69.7763 2.61753C70.4557 1.93805 71.1354 1.25854 71.8148 0.579059C78.0555 0.516608 84.2328 0.331292 90.3463 0.0231124Z" fill="#57E8B4"/>
<path fill-rule="evenodd" clip-rule="evenodd" d="M74.7792 51.9119C74.4442 52.1747 74.3208 52.5453 74.4086 53.0238C109.742 53.271 145.076 53.5178 180.409 53.765C176.095 61.4186 171.772 69.078 167.437 76.7442C176.311 92.1472 185.083 107.59 193.752 123.073C188.512 123.689 183.2 124.059 177.815 124.185C174.477 124.247 171.141 124.185 167.808 124C163.445 116.002 158.874 108.157 154.094 100.465C136.278 131.277 118.549 162.163 100.909 193.122C100.755 193.292 100.57 193.416 100.353 193.493C95.7773 185.576 91.2063 177.669 86.6394 169.773C68.9077 169.648 51.2408 169.278 33.6391 168.661C37.3121 161.831 41.0799 155.036 44.9434 148.276C45.3322 147.491 45.8881 146.874 46.6112 146.423C55.383 146.423 64.1543 146.423 72.9261 146.423C73.0139 145.944 72.8905 145.574 72.5554 145.311C55.0223 114.555 37.4793 83.7925 19.9258 53.0238C29.0656 52.715 38.2079 52.5297 47.3525 52.4678C56.3199 37.08 65.277 21.6988 74.2233 6.32422C74.6906 6.42025 75.0613 6.66735 75.3352 7.06548C79.5233 14.3922 83.6621 21.7431 87.7513 29.118C83.3742 36.7001 79.05 44.298 74.7792 51.9119Z" fill="#22252E"/>
<path fill-rule="evenodd" clip-rule="evenodd" d="M74.7799 51.9121C109.926 52.5296 145.136 52.9002 180.41 53.024C145.076 53.024 109.743 53.024 74.4092 53.024C74.3214 52.5455 74.4448 52.1749 74.7799 51.9121Z" fill="#57E8B4"/>
<path fill-rule="evenodd" clip-rule="evenodd" d="M74.4102 53.0234C109.744 53.0234 145.077 53.0234 180.411 53.0234C180.905 53.2706 180.905 53.5175 180.411 53.7647C145.077 53.5175 109.744 53.2706 74.4102 53.0234Z" fill="#22252E"/>
<path fill-rule="evenodd" clip-rule="evenodd" d="M68.1094 79.7088C89.2976 79.2155 110.547 79.2155 131.858 79.7088C131.812 79.9338 131.689 80.0572 131.487 80.0795C110.424 79.7092 89.298 79.5858 68.1094 79.7088Z" fill="#57E8B4"/>
<path fill-rule="evenodd" clip-rule="evenodd" d="M68.1094 79.7092C89.298 79.5861 110.424 79.7095 131.487 80.0798C121.172 98.4879 110.671 116.773 99.9837 134.933C89.0793 116.71 78.4544 98.3019 68.1094 79.7092Z" fill="#57E8B4"/>
<path fill-rule="evenodd" clip-rule="evenodd" d="M193.753 123.073C194.088 123.336 194.211 123.707 194.123 124.185C188.687 124.185 183.251 124.185 177.815 124.185C183.2 124.059 188.513 123.689 193.753 123.073Z" fill="#22252E"/>
<path fill-rule="evenodd" clip-rule="evenodd" d="M72.5565 145.311C72.8915 145.573 73.015 145.944 72.9271 146.422C64.1554 146.422 55.384 146.422 46.6123 146.422C55.3288 146.298 63.9768 145.927 72.5565 145.311Z" fill="#57E8B4"/>
<path fill-rule="evenodd" clip-rule="evenodd" d="M33.6392 168.66C51.2409 169.277 68.9078 169.648 86.6395 169.772C68.8492 169.772 51.0589 169.772 33.2686 169.772C33.1808 169.294 33.3042 168.923 33.6392 168.66Z" fill="#22252E"/>
</svg>
