<svg width="270" height="270" viewBox="0 0 270 270" fill="none" xmlns="http://www.w3.org/2000/svg">
<rect width="270" height="270" rx="30.682" fill="#57E8B4"/>
<path fill-rule="evenodd" clip-rule="evenodd" d="M109.255 118.852C108.6 118.5 108.079 117.941 107.774 117.262C95.9583 90.9398 71.9402 70.4417 42.1222 64.7377C40.4768 64.423 40.7065 62 42.3817 62H68.3804C93.6484 62 116.386 72.8331 132.203 90.1082C133.565 91.5968 135.941 91.5969 137.304 90.1084C153.12 72.8355 175.856 62.004 201.122 62.004H227.118C228.795 62.004 229.025 64.4304 227.378 64.7456C197.58 70.4457 173.574 90.9202 161.75 117.217C161.444 117.896 160.922 118.455 160.266 118.806C151.615 123.439 143.844 129.5 137.267 136.674C135.904 138.16 133.532 138.16 132.17 136.674C125.614 129.523 117.872 123.479 109.255 118.852ZM137.312 158.152C135.949 159.641 133.574 159.641 132.211 158.152C116.394 140.877 93.6568 130.044 68.3891 130.044H42.3879C40.7103 130.044 40.4803 132.471 42.1281 132.786C79.8888 140.009 108.348 170.958 114.504 207.416C114.53 207.572 114.665 207.686 114.823 207.686H115.145L115.145 207.686L115.145 207.687H152.225C153.81 207.687 155.157 206.537 155.464 204.982C162.451 169.59 190.477 139.852 227.393 132.79C229.041 132.475 228.811 130.049 227.133 130.049H201.13C175.864 130.049 153.128 140.88 137.312 158.152Z" fill="url(#paint0_linear_76_2)"/>
<defs>
<linearGradient id="paint0_linear_76_2" x1="134.758" y1="62" x2="134.758" y2="207.687" gradientUnits="userSpaceOnUse">
<stop stop-color="#1F222C"/>
<stop offset="1" stop-color="#16171C"/>
</linearGradient>
</defs>
</svg>
