<svg width="127" height="64" viewBox="0 0 127 64" fill="none" xmlns="http://www.w3.org/2000/svg">
<mask id="path-1-outside-1_232_561" maskUnits="userSpaceOnUse" x="0" y="12" width="127" height="35" fill="black">
<rect fill="white" y="12" width="127" height="35"/>
<path d="M2.36007 44.5915L2.99548 39.1452C6.44482 39.5991 9.21336 39.826 11.2557 39.826C13.6612 39.826 15.3859 39.5991 16.3844 39.1452C17.3828 38.6913 17.8821 37.7836 17.8821 36.3767C17.8821 35.242 17.519 34.3797 16.8836 33.7897C16.2482 33.245 15.0228 32.7458 13.2527 32.2919L9.34952 31.3388C6.89868 30.7942 4.94708 29.8411 3.54011 28.4795C2.08776 27.1633 1.40697 25.1663 1.40697 22.4885C1.40697 19.13 2.40546 16.7245 4.44783 15.3629C6.44482 14.0013 9.53107 13.2752 13.7066 13.2752C16.5205 13.2752 19.6521 13.5929 23.1015 14.1829L22.4661 19.6746C19.2891 19.2661 16.8836 19.0392 15.1589 19.0392C12.5719 19.0392 10.8019 19.3115 9.89415 19.7654C8.94105 20.2646 8.48719 21.2177 8.48719 22.5793C8.48719 23.6686 8.7595 24.4401 9.39491 24.894C10.0303 25.3479 11.1196 25.7563 12.7535 26.1194L16.4751 26.9817C19.2891 27.6172 21.4222 28.7064 22.7838 30.1588C24.1454 31.6111 24.8715 33.6535 24.8715 36.1951C24.8715 39.4629 23.873 41.8684 21.8761 43.3207C19.8791 44.8185 16.5205 45.5446 11.8911 45.5446C9.16798 45.5446 5.99096 45.2269 2.36007 44.5915ZM37.77 45V34.1981C36.5446 33.5627 35.5461 32.3373 34.7292 30.6126L26.4689 13.8198H33.2314L39.8578 28.2072C40.2209 28.9787 40.6294 29.3418 41.0378 29.3418C41.4917 29.3418 41.8548 28.9787 42.2179 28.2072L48.7535 13.8198H55.5614L47.4373 30.6126C46.6203 32.3373 45.5764 33.5173 44.3964 34.1527V45H37.77ZM59.4943 44.5008V18.8576C59.4943 17.3145 59.9482 16.0891 60.8559 15.1814C61.7636 14.2737 63.1706 13.8198 64.9861 13.8198H72.157C76.0602 13.8198 78.8742 14.546 80.5081 15.9076C82.142 17.2691 83.0043 19.3115 83.0043 22.0347C83.0043 23.8501 82.5504 25.3479 81.6881 26.5279C80.8258 27.7079 79.6457 28.4795 78.148 28.8426C79.9634 29.251 81.4158 30.1134 82.5051 31.3842C83.5943 32.655 84.139 34.3797 84.139 36.4674C84.139 39.5083 83.1405 41.7776 81.1435 43.2753C79.1465 44.7731 75.8787 45.4992 71.2493 45.4992C67.8 45.4992 63.8514 45.1815 59.4943 44.5008ZM65.8484 31.7473V39.7806C67.8908 40.0529 69.797 40.1891 71.5216 40.1891C73.7909 40.1891 75.3341 39.8714 76.2418 39.236C77.1495 38.6006 77.6034 37.5567 77.6034 36.0136V35.4689C77.6034 33.0181 75.8333 31.7473 72.384 31.7473H65.8484ZM72.157 18.9938H67.3461C66.3476 18.9938 65.8484 19.4931 65.8484 20.4008V26.7548H72.2024C73.6548 26.7548 74.744 26.4825 75.4702 25.8471C76.1964 25.2117 76.5595 24.3947 76.5595 23.3055V22.7155C76.5595 21.4447 76.1964 20.4915 75.5156 19.9015C74.7894 19.3115 73.7002 18.9938 72.157 18.9938ZM97.308 45H90.727V13.8652H97.308V45ZM105.697 39.9622V13.8198H112.278V38.2375C112.278 38.7367 112.368 39.0998 112.595 39.2814C112.777 39.5083 113.14 39.5991 113.685 39.5991H125.303V45H111.098C107.467 45 105.697 43.3207 105.697 39.9622Z"/>
</mask>
<path d="M2.36007 44.5915L2.99548 39.1452C6.44482 39.5991 9.21336 39.826 11.2557 39.826C13.6612 39.826 15.3859 39.5991 16.3844 39.1452C17.3828 38.6913 17.8821 37.7836 17.8821 36.3767C17.8821 35.242 17.519 34.3797 16.8836 33.7897C16.2482 33.245 15.0228 32.7458 13.2527 32.2919L9.34952 31.3388C6.89868 30.7942 4.94708 29.8411 3.54011 28.4795C2.08776 27.1633 1.40697 25.1663 1.40697 22.4885C1.40697 19.13 2.40546 16.7245 4.44783 15.3629C6.44482 14.0013 9.53107 13.2752 13.7066 13.2752C16.5205 13.2752 19.6521 13.5929 23.1015 14.1829L22.4661 19.6746C19.2891 19.2661 16.8836 19.0392 15.1589 19.0392C12.5719 19.0392 10.8019 19.3115 9.89415 19.7654C8.94105 20.2646 8.48719 21.2177 8.48719 22.5793C8.48719 23.6686 8.7595 24.4401 9.39491 24.894C10.0303 25.3479 11.1196 25.7563 12.7535 26.1194L16.4751 26.9817C19.2891 27.6172 21.4222 28.7064 22.7838 30.1588C24.1454 31.6111 24.8715 33.6535 24.8715 36.1951C24.8715 39.4629 23.873 41.8684 21.8761 43.3207C19.8791 44.8185 16.5205 45.5446 11.8911 45.5446C9.16798 45.5446 5.99096 45.2269 2.36007 44.5915ZM37.77 45V34.1981C36.5446 33.5627 35.5461 32.3373 34.7292 30.6126L26.4689 13.8198H33.2314L39.8578 28.2072C40.2209 28.9787 40.6294 29.3418 41.0378 29.3418C41.4917 29.3418 41.8548 28.9787 42.2179 28.2072L48.7535 13.8198H55.5614L47.4373 30.6126C46.6203 32.3373 45.5764 33.5173 44.3964 34.1527V45H37.77ZM59.4943 44.5008V18.8576C59.4943 17.3145 59.9482 16.0891 60.8559 15.1814C61.7636 14.2737 63.1706 13.8198 64.9861 13.8198H72.157C76.0602 13.8198 78.8742 14.546 80.5081 15.9076C82.142 17.2691 83.0043 19.3115 83.0043 22.0347C83.0043 23.8501 82.5504 25.3479 81.6881 26.5279C80.8258 27.7079 79.6457 28.4795 78.148 28.8426C79.9634 29.251 81.4158 30.1134 82.5051 31.3842C83.5943 32.655 84.139 34.3797 84.139 36.4674C84.139 39.5083 83.1405 41.7776 81.1435 43.2753C79.1465 44.7731 75.8787 45.4992 71.2493 45.4992C67.8 45.4992 63.8514 45.1815 59.4943 44.5008ZM65.8484 31.7473V39.7806C67.8908 40.0529 69.797 40.1891 71.5216 40.1891C73.7909 40.1891 75.3341 39.8714 76.2418 39.236C77.1495 38.6006 77.6034 37.5567 77.6034 36.0136V35.4689C77.6034 33.0181 75.8333 31.7473 72.384 31.7473H65.8484ZM72.157 18.9938H67.3461C66.3476 18.9938 65.8484 19.4931 65.8484 20.4008V26.7548H72.2024C73.6548 26.7548 74.744 26.4825 75.4702 25.8471C76.1964 25.2117 76.5595 24.3947 76.5595 23.3055V22.7155C76.5595 21.4447 76.1964 20.4915 75.5156 19.9015C74.7894 19.3115 73.7002 18.9938 72.157 18.9938ZM97.308 45H90.727V13.8652H97.308V45ZM105.697 39.9622V13.8198H112.278V38.2375C112.278 38.7367 112.368 39.0998 112.595 39.2814C112.777 39.5083 113.14 39.5991 113.685 39.5991H125.303V45H111.098C107.467 45 105.697 43.3207 105.697 39.9622Z" fill="#C5DBFF"/>
<path d="M2.36007 44.5915L1.55204 44.4973L1.46301 45.2604L2.21984 45.3929L2.36007 44.5915ZM2.99548 39.1452L3.1016 38.3386L2.28311 38.2309L2.18745 39.0509L2.99548 39.1452ZM16.3844 39.1452L16.721 39.8858L16.3844 39.1452ZM16.8836 33.7896L17.4372 33.1935L17.4253 33.1825L17.413 33.172L16.8836 33.7896ZM13.2527 32.2919L13.4548 31.5038L13.4457 31.5016L13.2527 32.2919ZM9.34952 31.3388L9.5425 30.5485L9.53427 30.5465L9.526 30.5447L9.34952 31.3388ZM3.54011 28.4795L4.10584 27.8949L4.09627 27.8856L4.0864 27.8767L3.54011 28.4795ZM4.44783 15.3629L4.89911 16.0398L4.90611 16.0351L4.44783 15.3629ZM23.1015 14.1829L23.9096 14.2764L23.9982 13.5109L23.2386 13.381L23.1015 14.1829ZM22.4661 19.6746L22.3623 20.4815L23.1795 20.5865L23.2742 19.7681L22.4661 19.6746ZM9.89415 19.7654L9.53034 19.0377L9.52348 19.0412L9.51668 19.0447L9.89415 19.7654ZM9.39491 24.894L9.86775 24.232L9.39491 24.894ZM12.7535 26.1194L12.9371 25.3269L12.9299 25.3253L12.7535 26.1194ZM16.4751 26.9817L16.2915 27.7743L16.2959 27.7753L16.4751 26.9817ZM22.7838 30.1588L23.3773 29.6024H23.3773L22.7838 30.1588ZM21.8761 43.3207L21.3975 42.6627L21.388 42.6699L21.8761 43.3207ZM2.36007 44.5915L3.1681 44.6858L3.80351 39.2395L2.99548 39.1452L2.18745 39.0509L1.55204 44.4973L2.36007 44.5915ZM2.99548 39.1452L2.88935 39.9518C6.35358 40.4076 9.16203 40.6395 11.2557 40.6395V39.826V39.0125C9.2647 39.0125 6.53605 38.7905 3.1016 38.3386L2.99548 39.1452ZM11.2557 39.826V40.6395C13.6698 40.6395 15.5499 40.4181 16.721 39.8858L16.3844 39.1452L16.0477 38.4046C15.2218 38.78 13.6526 39.0125 11.2557 39.0125V39.826ZM16.3844 39.1452L16.721 39.8858C17.3707 39.5905 17.8831 39.1315 18.2225 38.5067C18.5551 37.8943 18.6956 37.1715 18.6956 36.3767H17.8821H17.0686C17.0686 36.9888 16.9594 37.4233 16.7928 37.73C16.633 38.0242 16.3965 38.2461 16.0477 38.4046L16.3844 39.1452ZM17.8821 36.3767H18.6956C18.6956 35.0592 18.2677 33.9647 17.4372 33.1935L16.8836 33.7896L16.33 34.3858C16.7704 34.7947 17.0686 35.4248 17.0686 36.3767H17.8821ZM16.8836 33.7896L17.413 33.172C16.6219 32.4938 15.2303 31.9592 13.4548 31.5039L13.2527 32.2919L13.0507 33.0799C14.8152 33.5324 15.8745 33.9962 16.3542 34.4073L16.8836 33.7896ZM13.2527 32.2919L13.4457 31.5016L9.5425 30.5485L9.34952 31.3388L9.15654 32.1291L13.0597 33.0822L13.2527 32.2919ZM9.34952 31.3388L9.526 30.5447C7.1781 30.0229 5.37673 29.1248 4.10584 27.8949L3.54011 28.4795L2.97438 29.0641C4.51743 30.5574 6.61925 31.5654 9.17305 32.1329L9.34952 31.3388ZM3.54011 28.4795L4.0864 27.8767C2.8671 26.7717 2.22048 25.038 2.22048 22.4885H1.40697H0.593456C0.593456 25.2946 1.30842 27.5549 2.99382 29.0823L3.54011 28.4795ZM1.40697 22.4885H2.22048C2.22048 19.2813 3.16775 17.194 4.89909 16.0398L4.44783 15.3629L3.99658 14.686C1.64317 16.255 0.593456 18.9786 0.593456 22.4885H1.40697ZM4.44783 15.3629L4.90611 16.0351C6.70622 14.8077 9.59903 14.0887 13.7066 14.0887V13.2752V12.4617C9.46311 12.4617 6.18341 13.195 3.98955 14.6908L4.44783 15.3629ZM13.7066 13.2752V14.0887C16.4617 14.0887 19.5455 14.4 22.9643 14.9848L23.1015 14.1829L23.2386 13.381C19.7588 12.7858 16.5794 12.4617 13.7066 12.4617V13.2752ZM23.1015 14.1829L22.2934 14.0894L21.658 19.5811L22.4661 19.6746L23.2742 19.7681L23.9096 14.2764L23.1015 14.1829ZM22.4661 19.6746L22.5698 18.8677C19.39 18.4589 16.9399 18.2257 15.1589 18.2257V19.0392V19.8527C16.8273 19.8527 19.1881 20.0733 22.3623 20.4815L22.4661 19.6746ZM15.1589 19.0392V18.2257C12.5662 18.2257 10.624 18.4909 9.53034 19.0377L9.89415 19.7654L10.258 20.493C10.9797 20.1321 12.5777 19.8527 15.1589 19.8527V19.0392ZM9.89415 19.7654L9.51668 19.0447C8.20655 19.731 7.67368 21.0308 7.67368 22.5793H8.48719H9.3007C9.3007 21.4047 9.67554 20.7982 10.2716 20.486L9.89415 19.7654ZM8.48719 22.5793H7.67368C7.67368 23.7829 7.9755 24.8799 8.92206 25.556L9.39491 24.894L9.86775 24.232C9.5435 24.0004 9.3007 23.5542 9.3007 22.5793H8.48719ZM9.39491 24.894L8.92206 25.556C9.697 26.1095 10.9213 26.5456 12.577 26.9136L12.7535 26.1194L12.9299 25.3253C11.3179 24.967 10.3636 24.5862 9.86775 24.232L9.39491 24.894ZM12.7535 26.1194L12.5698 26.9119L16.2915 27.7743L16.4751 26.9817L16.6588 26.1892L12.9371 25.3269L12.7535 26.1194ZM16.4751 26.9817L16.2959 27.7753C19.0135 28.3889 20.9769 29.4208 22.1903 30.7152L22.7838 30.1588L23.3773 29.6024C21.8675 27.992 19.5647 26.8454 16.6543 26.1882L16.4751 26.9817ZM22.7838 30.1588L22.1903 30.7152C23.3792 31.9834 24.058 33.8094 24.058 36.1951H24.8715H25.6851C25.6851 33.4976 24.9115 31.2389 23.3773 29.6024L22.7838 30.1588ZM24.8715 36.1951H24.058C24.058 39.2994 23.1164 41.4127 21.3976 42.6628L21.8761 43.3207L22.3545 43.9786C24.6297 42.324 25.6851 39.6264 25.6851 36.1951H24.8715ZM21.8761 43.3207L21.388 42.6699C19.612 44.0019 16.482 44.7311 11.8911 44.7311V45.5446V46.3581C16.5591 46.3581 20.1461 45.635 22.3642 43.9715L21.8761 43.3207ZM11.8911 45.5446V44.7311C9.22812 44.7311 6.09993 44.4201 2.50031 43.7902L2.36007 44.5915L2.21984 45.3929C5.88199 46.0337 9.10783 46.3581 11.8911 46.3581V45.5446ZM37.77 45H36.9565V45.8135H37.77V45ZM37.77 34.1981H38.5835V33.7036L38.1445 33.4759L37.77 34.1981ZM34.7292 30.6126L35.4645 30.2643L35.4592 30.2536L34.7292 30.6126ZM26.4689 13.8198V13.0063H25.1622L25.7389 14.1789L26.4689 13.8198ZM33.2314 13.8198L33.9703 13.4795L33.7524 13.0063H33.2314V13.8198ZM39.8578 28.2072L39.1189 28.5475L39.1217 28.5536L39.8578 28.2072ZM42.2179 28.2072L42.954 28.5536L42.9585 28.5436L42.2179 28.2072ZM48.7535 13.8198V13.0063H48.2295L48.0128 13.4833L48.7535 13.8198ZM55.5614 13.8198L56.2937 14.1741L56.8586 13.0063H55.5614V13.8198ZM47.4373 30.6126L46.7049 30.2583L46.7021 30.2644L47.4373 30.6126ZM44.3964 34.1527L44.0107 33.4365L43.5829 33.6668V34.1527H44.3964ZM44.3964 45V45.8135H45.2099V45H44.3964ZM37.77 45H38.5835V34.1981H37.77H36.9565V45H37.77ZM37.77 34.1981L38.1445 33.4759C37.1398 32.955 36.2424 31.9069 35.4644 30.2644L34.7292 30.6126L33.994 30.9609C34.8498 32.7677 35.9494 34.1705 37.3956 34.9203L37.77 34.1981ZM34.7292 30.6126L35.4592 30.2536L27.1989 13.4607L26.4689 13.8198L25.7389 14.1789L33.9992 30.9717L34.7292 30.6126ZM26.4689 13.8198V14.6333H33.2314V13.8198V13.0063H26.4689V13.8198ZM33.2314 13.8198L32.4925 14.1601L39.1189 28.5475L39.8578 28.2072L40.5967 27.8669L33.9703 13.4795L33.2314 13.8198ZM39.8578 28.2072L39.1217 28.5536C39.4998 29.357 40.1076 30.1553 41.0378 30.1553V29.3418V28.5283C41.0943 28.5283 41.0803 28.5581 40.9889 28.4719C40.8906 28.3793 40.7505 28.1935 40.5939 27.8608L39.8578 28.2072ZM41.0378 29.3418V30.1553C42.0259 30.1553 42.5861 29.3353 42.9539 28.5536L42.2179 28.2072L41.4818 27.8608C41.3177 28.2095 41.1861 28.392 41.0953 28.4801C41.0546 28.5196 41.033 28.5293 41.0318 28.5298C41.031 28.5302 41.0326 28.5295 41.0356 28.5288C41.0387 28.5282 41.0398 28.5283 41.0378 28.5283V29.3418ZM42.2179 28.2072L42.9585 28.5436L49.4941 14.1563L48.7535 13.8198L48.0128 13.4833L41.4772 27.8707L42.2179 28.2072ZM48.7535 13.8198V14.6333H55.5614V13.8198V13.0063H48.7535V13.8198ZM55.5614 13.8198L54.829 13.4655L46.7049 30.2583L47.4373 30.6126L48.1696 30.9669L56.2937 14.1741L55.5614 13.8198ZM47.4373 30.6126L46.7021 30.2644C45.9352 31.8833 44.9948 32.9066 44.0107 33.4365L44.3964 34.1527L44.7821 34.869C46.1581 34.1281 47.3054 32.7913 48.1725 30.9609L47.4373 30.6126ZM44.3964 34.1527H43.5829V45H44.3964H45.2099V34.1527H44.3964ZM44.3964 45V44.1865H37.77V45V45.8135H44.3964V45ZM59.4943 44.5008H58.6808V45.197L59.3688 45.3045L59.4943 44.5008ZM60.8559 15.1814L61.4312 15.7566V15.7566L60.8559 15.1814ZM80.5081 15.9076L81.0289 15.2826L80.5081 15.9076ZM81.6881 26.5279L82.3449 27.0079V27.0079L81.6881 26.5279ZM78.148 28.8426L77.9563 28.052L77.9694 29.6362L78.148 28.8426ZM81.1435 43.2753L80.6554 42.6245L81.1435 43.2753ZM65.8484 31.7473V30.9338H65.0349V31.7473H65.8484ZM65.8484 39.7806H65.0349V40.4929L65.7409 40.587L65.8484 39.7806ZM76.2418 39.236L76.7083 39.9024L76.2418 39.236ZM65.8484 26.7548H65.0349V27.5683H65.8484V26.7548ZM75.4702 25.8471L74.9345 25.2349L75.4702 25.8471ZM75.5156 19.9015L76.0484 19.2868L76.0386 19.2783L76.0286 19.2701L75.5156 19.9015ZM59.4943 44.5008H60.3079V18.8576H59.4943H58.6808V44.5008H59.4943ZM59.4943 18.8576H60.3079C60.3079 17.4836 60.7061 16.4817 61.4312 15.7566L60.8559 15.1814L60.2807 14.6061C59.1903 15.6965 58.6808 17.1454 58.6808 18.8576H59.4943ZM60.8559 15.1814L61.4312 15.7566C62.1292 15.0586 63.2892 14.6333 64.9861 14.6333V13.8198V13.0063C63.052 13.0063 61.3981 13.4887 60.2807 14.6061L60.8559 15.1814ZM64.9861 13.8198V14.6333H72.157V13.8198V13.0063H64.9861V13.8198ZM72.157 13.8198V14.6333C76.0017 14.6333 78.5761 15.3566 79.9873 16.5325L80.5081 15.9076L81.0289 15.2826C79.1722 13.7354 76.1188 13.0063 72.157 13.0063V13.8198ZM80.5081 15.9076L79.9873 16.5325C81.3938 17.7046 82.1908 19.4926 82.1908 22.0347H83.0043H83.8178C83.8178 19.1305 82.8901 16.8336 81.0289 15.2826L80.5081 15.9076ZM83.0043 22.0347H82.1908C82.1908 23.7112 81.7736 25.0321 81.0313 26.0479L81.6881 26.5279L82.3449 27.0079C83.3273 25.6636 83.8178 23.989 83.8178 22.0347H83.0043ZM81.6881 26.5279L81.0313 26.0479C80.2889 27.0637 79.2782 27.7315 77.9563 28.052L78.148 28.8426L78.3397 29.6332C80.0133 29.2275 81.3626 28.3521 82.3449 27.0079L81.6881 26.5279ZM78.148 28.8426L77.9694 29.6362C79.6272 30.0092 80.9208 30.7859 81.8874 31.9136L82.5051 31.3842L83.1227 30.8548C81.9108 29.4409 80.2997 28.4929 78.3266 28.0489L78.148 28.8426ZM82.5051 31.3842L81.8874 31.9136C82.8187 33.0002 83.3254 34.5192 83.3254 36.4674H84.139H84.9525C84.9525 34.2402 84.3699 32.3098 83.1227 30.8548L82.5051 31.3842ZM84.139 36.4674H83.3254C83.3254 39.3147 82.4022 41.3144 80.6554 42.6245L81.1435 43.2753L81.6316 43.9261C83.8787 42.2408 84.9525 39.7019 84.9525 36.4674H84.139ZM81.1435 43.2753L80.6554 42.6245C78.8776 43.9578 75.8358 44.6857 71.2493 44.6857V45.4992V46.3128C75.9216 46.3128 79.4154 45.5883 81.6316 43.9261L81.1435 43.2753ZM71.2493 45.4992V44.6857C67.8484 44.6857 63.9423 44.3724 59.6199 43.697L59.4943 44.5008L59.3688 45.3045C63.7605 45.9907 67.7515 46.3128 71.2493 46.3128V45.4992ZM65.8484 31.7473H65.0349V39.7806H65.8484H66.6619V31.7473H65.8484ZM65.8484 39.7806L65.7409 40.587C67.8128 40.8632 69.7553 41.0026 71.5216 41.0026V40.1891V39.3756C69.8386 39.3756 67.9688 39.2426 65.9559 38.9742L65.8484 39.7806ZM71.5216 40.1891V41.0026C73.8185 41.0026 75.5824 40.6906 76.7083 39.9024L76.2418 39.236L75.7753 38.5695C75.0858 39.0522 73.7634 39.3756 71.5216 39.3756V40.1891ZM76.2418 39.236L76.7083 39.9024C77.9055 39.0644 78.4169 37.7201 78.4169 36.0136H77.6034H76.7899C76.7899 37.3933 76.3935 38.1367 75.7753 38.5695L76.2418 39.236ZM77.6034 36.0136H78.4169V35.4689H77.6034H76.7899V36.0136H77.6034ZM77.6034 35.4689H78.4169C78.4169 34.0219 77.8788 32.8262 76.76 32.0271C75.6886 31.2617 74.1859 30.9338 72.384 30.9338V31.7473V32.5608C74.0314 32.5608 75.1384 32.8682 75.8143 33.351C76.4429 33.8 76.7899 34.4652 76.7899 35.4689H77.6034ZM72.384 31.7473V30.9338H65.8484V31.7473V32.5608H72.384V31.7473ZM72.157 18.9938V18.1803H67.3461V18.9938V19.8073H72.157V18.9938ZM67.3461 18.9938V18.1803C66.7213 18.1803 66.1133 18.3368 65.6611 18.7684C65.2025 19.2062 65.0349 19.8014 65.0349 20.4008H65.8484H66.6619C66.6619 20.0925 66.7439 19.9842 66.7845 19.9454C66.8316 19.9005 66.9725 19.8073 67.3461 19.8073V18.9938ZM65.8484 20.4008H65.0349V26.7548H65.8484H66.6619V20.4008H65.8484ZM65.8484 26.7548V27.5683H72.2024V26.7548V25.9413H65.8484V26.7548ZM72.2024 26.7548V27.5683C73.7281 27.5683 75.0592 27.2877 76.0059 26.4593L75.4702 25.8471L74.9345 25.2349C74.4288 25.6773 73.5814 25.9413 72.2024 25.9413V26.7548ZM75.4702 25.8471L76.0059 26.4593C76.9243 25.6557 77.373 24.6077 77.373 23.3055H76.5595H75.746C75.746 24.1818 75.4685 24.7677 74.9345 25.2349L75.4702 25.8471ZM76.5595 23.3055H77.373V22.7155H76.5595H75.746V23.3055H76.5595ZM76.5595 22.7155H77.373C77.373 21.2998 76.9664 20.0823 76.0484 19.2868L75.5156 19.9015L74.9828 20.5163C75.4264 20.9008 75.746 21.5895 75.746 22.7155H76.5595ZM75.5156 19.9015L76.0286 19.2701C75.0994 18.5152 73.7954 18.1803 72.157 18.1803V18.9938V19.8073C73.605 19.8073 74.4794 20.1078 75.0026 20.5329L75.5156 19.9015ZM97.308 45V45.8135H98.1215V45H97.308ZM90.727 45H89.9135V45.8135H90.727V45ZM90.727 13.8652V13.0517H89.9135V13.8652H90.727ZM97.308 13.8652H98.1215V13.0517H97.308V13.8652ZM97.308 45V44.1865H90.727V45V45.8135H97.308V45ZM90.727 45H91.5405V13.8652H90.727H89.9135V45H90.727ZM90.727 13.8652V14.6787H97.308V13.8652V13.0517H90.727V13.8652ZM97.308 13.8652H96.4945V45H97.308H98.1215V13.8652H97.308ZM105.697 13.8198V13.0063H104.883V13.8198H105.697ZM112.278 13.8198H113.091V13.0063H112.278V13.8198ZM112.595 39.2814L113.231 38.7732L113.174 38.7026L113.103 38.6461L112.595 39.2814ZM125.303 39.5991H126.117V38.7856H125.303V39.5991ZM125.303 45V45.8135H126.117V45H125.303ZM105.697 39.9622H106.51V13.8198H105.697H104.883V39.9622H105.697ZM105.697 13.8198V14.6333H112.278V13.8198V13.0063H105.697V13.8198ZM112.278 13.8198H111.464V38.2375H112.278H113.091V13.8198H112.278ZM112.278 38.2375H111.464C111.464 38.7514 111.539 39.4782 112.087 39.9166L112.595 39.2814L113.103 38.6461C113.161 38.6921 113.154 38.7241 113.133 38.6517C113.111 38.5771 113.091 38.4456 113.091 38.2375H112.278ZM112.595 39.2814L111.96 39.7896C112.189 40.0763 112.496 40.2277 112.784 40.3084C113.066 40.3879 113.376 40.4126 113.685 40.4126V39.5991V38.7856C113.449 38.7856 113.305 38.7649 113.224 38.7422C113.148 38.7208 113.183 38.7134 113.231 38.7732L112.595 39.2814ZM113.685 39.5991V40.4126H125.303V39.5991V38.7856H113.685V39.5991ZM125.303 39.5991H124.49V45H125.303H126.117V39.5991H125.303ZM125.303 45V44.1865H111.098V45V45.8135H125.303V45ZM111.098 45V44.1865C109.392 44.1865 108.279 43.7908 107.592 43.1468C106.914 42.5124 106.51 41.5047 106.51 39.9622H105.697H104.883C104.883 41.7782 105.364 43.2894 106.479 44.3343C107.585 45.3695 109.172 45.8135 111.098 45.8135V45Z" fill="#C5DBFF" mask="url(#path-1-outside-1_232_561)"/>
</svg>
