<svg width="72" height="56" viewBox="0 0 72 56" fill="none" xmlns="http://www.w3.org/2000/svg">
<path fill-rule="evenodd" clip-rule="evenodd" d="M25.8914 21.5642C25.6428 21.4307 25.4451 21.2188 25.3295 20.9614C20.8468 10.9774 11.7362 3.20278 0.42599 1.03922C-0.198598 0.919743 -0.111415 0 0.524498 0H10.3864C19.9712 0 28.5963 4.10908 34.5962 10.6618C35.1132 11.2264 36.0143 11.2264 36.5313 10.6618C42.5312 4.1096 51.1559 0.000854876 60.7404 0.000854876H70.6013C71.2377 0.000854876 71.325 0.921408 70.6999 1.04099C59.3969 3.20316 50.2908 10.9692 45.805 20.9439C45.6892 21.2014 45.4911 21.4134 45.2422 21.5467C41.9607 23.3041 39.0127 25.6032 36.5178 28.3245C36.0009 28.8882 35.101 28.8883 34.5841 28.3245C32.0972 25.6122 29.1602 23.3193 25.8914 21.5642ZM36.5364 36.4751C36.0194 37.0397 35.1184 37.0396 34.6014 36.475C28.6015 29.922 19.9762 25.8127 10.3911 25.8127H0.527454C-0.109019 25.8127 -0.196274 26.7333 0.428864 26.8529C14.7529 29.5929 25.5488 41.3328 27.8842 55.1625C27.8942 55.2215 27.9453 55.265 28.0052 55.265H28.1271C28.1274 55.265 28.1276 55.2652 28.1276 55.2655C28.1276 55.2656 28.1276 55.2658 28.1277 55.2658C28.1278 55.2659 28.1279 55.2659 28.128 55.2659H42.1927C42.7941 55.2659 43.3049 54.83 43.4214 54.24C46.0722 40.8145 56.7037 29.534 70.7074 26.8552C71.3323 26.7356 71.245 25.8155 70.6088 25.8155H60.7442C51.1605 25.8155 42.5362 29.9237 36.5364 36.4751Z" fill="#57E8B4"/>
</svg>
